<?xml version="1.0" encoding="UTF-8"?><svg version="1.1" xmlns="http://www.w3.org/2000/svg" width="105" height="105"><path d="M0 0 C8.89 8.22 14.07 18.92 14.92 31.02 C14.94 32.37 14.95 33.72 14.95 35.07 C14.95 35.8 14.96 36.52 14.96 37.27 C14.97 38.8 14.97 40.32 14.96 41.84 C14.96 44.16 14.98 46.47 15.01 48.79 C15.01 50.28 15.01 51.77 15.01 53.26 C15.02 53.94 15.03 54.62 15.04 55.33 C14.98 61.59 13.39 66.08 9.27 70.85 C4.67 74.79 1.57 76.41 -4.54 76.54 C-8.96 76.76 -12.24 77.25 -16.23 79.16 C-23.06 82.2 -31.72 82.73 -38.82 80.23 C-40.22 79.51 -41.6 78.78 -42.98 78.03 C-46.14 76.79 -48.96 76.81 -52.35 76.72 C-59.15 76.41 -63.41 74.78 -68.35 70.1 C-73.51 63.33 -72.57 55.43 -72.59 47.3 C-72.6 45.07 -72.63 42.83 -72.66 40.6 C-72.78 25.17 -69.67 12.93 -58.98 1.5 C-42.27 -13.77 -17.57 -14.21 0 0 Z M-39.35 -3.9 C-32.42 -3.9 -25.49 -3.9 -18.35 -3.9 C-22.48 -5.97 -24.35 -6.17 -28.85 -6.15 C-30.54 -6.16 -30.54 -6.16 -32.26 -6.17 C-35.63 -6.07 -35.63 -6.07 -39.35 -3.9 Z M-15.35 -2.9 C-12.73 -0.75 -10.71 0.5 -7.35 1.1 C-9.75 -1.8 -11.66 -2.4 -15.35 -2.9 Z M-47.35 -1.9 C-47.68 -1.24 -48.01 -0.58 -48.35 0.1 C-47.03 -0.56 -45.71 -1.22 -44.35 -1.9 C-45.34 -1.9 -46.33 -1.9 -47.35 -1.9 Z M-55.66 11.91 C-61.38 20.34 -62.97 26.88 -62.35 37.1 C-60.82 34.79 -59.69 32.77 -58.54 30.29 C-55.62 24.39 -51.78 19.91 -46.35 16.1 C-45.69 16.1 -45.03 16.1 -44.35 16.1 C-44.07 16.74 -43.79 17.38 -43.5 18.04 C-38.79 28.22 -32.88 34 -22.35 38.1 C-13.41 40.36 -4.19 39.29 4.65 37.1 C5.69 26.25 2.78 18.34 -3.73 9.66 C-10.62 2.93 -19.17 -0.88 -28.85 -1.28 C-39.38 -0.83 -49.07 3.61 -55.66 11.91 Z M-7.35 1.1 C-6.36 2.42 -5.37 3.74 -4.35 5.1 C-3.69 4.77 -3.03 4.44 -2.35 4.1 C-3.73 2.56 -3.73 2.56 -5.35 1.1 C-6.01 1.1 -6.67 1.1 -7.35 1.1 Z M-53.35 2.1 C-54.34 3.58 -54.34 3.58 -55.35 5.1 C-54.03 4.44 -52.71 3.78 -51.35 3.1 C-52.01 2.77 -52.67 2.44 -53.35 2.1 Z M-59.35 8.1 C-58.35 10.1 -58.35 10.1 -58.35 10.1 Z M0.65 8.1 C1.31 9.42 1.97 10.74 2.65 12.1 C2.65 11.11 2.65 10.12 2.65 9.1 C1.99 8.77 1.33 8.44 0.65 8.1 Z M-62.35 12.1 C-61.35 14.1 -61.35 14.1 -61.35 14.1 Z M3.65 12.1 C4.65 14.1 4.65 14.1 4.65 14.1 Z M-63.35 14.1 C-62.35 16.1 -62.35 16.1 -62.35 16.1 Z M4.65 14.1 C5.65 16.1 5.65 16.1 5.65 16.1 Z M-64.35 16.1 C-63.35 18.1 -63.35 18.1 -63.35 18.1 Z M5.65 16.1 C6.65 18.1 6.65 18.1 6.65 18.1 Z M-65.35 18.1 C-64.35 20.1 -64.35 20.1 -64.35 20.1 Z M6.65 18.1 C7.65 20.1 7.65 20.1 7.65 20.1 Z M7.65 20.1 C8.65 24.1 8.65 24.1 8.65 24.1 Z M-66.35 21.1 C-65.35 24.1 -65.35 24.1 -65.35 24.1 Z M-47.35 21.1 C-54.39 28.22 -58.46 35.24 -58.6 45.35 C-58.54 50.94 -58.02 55.18 -55.35 60.1 C-54.95 60.85 -54.55 61.6 -54.13 62.37 C-49.9 69.46 -44.53 73.43 -36.91 76.47 C-28.23 78 -21.15 77.45 -13.35 73.1 C-9.02 69.98 -5.52 67.05 -3.35 62.1 C-3.89 62.37 -4.42 62.63 -4.98 62.91 C-6.79 63.81 -8.63 64.66 -10.48 65.47 C-13.46 66.79 -13.46 66.79 -14.35 69.22 C-15.35 71.1 -15.35 71.1 -18.29 72.04 C-21.35 72.1 -21.35 72.1 -23.29 70.97 C-24.35 69.1 -24.35 69.1 -24.1 66.47 C-23.35 64.1 -23.35 64.1 -22.35 63.1 C-16.82 62.86 -16.82 62.86 -14.35 64.1 C-5.78 58.69 -5.78 58.69 0.65 51.1 C1.02 48.05 0.95 45.15 0.65 42.1 C-0.3 42.2 -1.24 42.31 -2.21 42.42 C-15.02 43.62 -25.83 42.21 -36.35 34.1 C-40.41 30.19 -43.59 26.01 -46.35 21.1 C-46.68 21.1 -47.01 21.1 -47.35 21.1 Z M-67.35 24.1 C-66.35 28.1 -66.35 28.1 -66.35 28.1 Z M8.65 24.1 C9.65 28.1 9.65 28.1 9.65 28.1 Z M-63.35 38.1 C-62.35 40.1 -62.35 40.1 -62.35 40.1 Z M8.65 38.1 C8.33 39.22 8.02 40.34 7.7 41.5 C4.54 52.61 1.08 62.42 -5.35 72.1 C-0.61 71.63 2.85 71.06 6.65 68.1 C9.38 64.33 10.01 61.76 9.94 57.14 C9.93 56.03 9.92 54.92 9.91 53.77 C9.87 52.05 9.87 52.05 9.84 50.29 C9.82 49.12 9.81 47.95 9.79 46.74 C9.76 43.86 9.71 40.98 9.65 38.1 C9.32 38.1 8.99 38.1 8.65 38.1 Z M-67.35 49.1 C-68.24 58.24 -68.24 58.24 -65.79 66.79 C-62.1 70.29 -58.5 71.96 -53.41 72.29 C-52.73 72.22 -52.05 72.16 -51.35 72.1 C-52.01 71.77 -52.67 71.44 -53.35 71.1 C-54.07 69.79 -54.73 68.45 -55.35 67.1 C-56.08 65.69 -56.08 65.69 -56.82 64.26 C-57.35 63.24 -57.87 62.21 -58.41 61.16 C-58.94 60.14 -59.47 59.12 -60.01 58.07 C-61.23 55.36 -61.91 53.03 -62.35 50.1 C-64 49.77 -65.65 49.44 -67.35 49.1 Z M-20.35 66.1 C-20.35 67.09 -20.35 68.08 -20.35 69.1 C-19.69 69.1 -19.03 69.1 -18.35 69.1 C-18.35 68.11 -18.35 67.12 -18.35 66.1 C-19.01 66.1 -19.67 66.1 -20.35 66.1 Z " fill="#4C138B" transform="translate(81.3515625,15.90234375)"/></svg>
