<?xml version="1.0" encoding="UTF-8"?><svg version="1.1" xmlns="http://www.w3.org/2000/svg" width="105" height="105"><path d="M0 0 C1.16 0.61 2.33 1.22 3.53 1.85 C4.16 2.18 4.78 2.5 5.43 2.84 C7.42 3.88 9.41 4.93 11.39 5.98 C12.74 6.68 14.08 7.38 15.43 8.08 C25.12 13.15 25.12 13.15 28.7 15.54 C29.04 18.34 29.04 18.34 29 21.86 C28.99 23.12 28.98 24.38 28.97 25.67 C28.94 26.99 28.92 28.31 28.89 29.67 C28.88 31.01 28.86 32.35 28.85 33.69 C28.82 36.97 28.77 40.26 28.7 43.54 C26.72 43.05 26.72 43.05 24.7 42.54 C24.7 35.61 24.7 28.68 24.7 21.54 C20.28 23.86 20.28 23.86 15.77 26.23 C14.4 26.94 14.4 26.94 13.01 27.67 C8.12 30.24 3.29 32.88 -1.49 35.63 C-3.3 36.54 -3.3 36.54 -5.3 36.54 C-4.8 50.9 -4.8 50.9 -4.3 65.54 C-2.98 65.54 -1.66 65.54 -0.3 65.54 C-0.63 68.07 -0.9 69.22 -2.92 70.85 C-8.49 72.47 -13.34 70.28 -18.17 67.64 C-18.85 67.26 -19.53 66.88 -20.23 66.48 C-28.48 61.91 -36.84 57.77 -45.3 53.54 C-45.3 41 -45.3 28.46 -45.3 15.54 C-36.3 11.04 -36.3 11.04 -33.32 9.56 C-29.06 7.44 -24.82 5.3 -20.62 3.06 C-19.9 2.69 -19.19 2.31 -18.46 1.93 C-17.13 1.23 -15.81 0.52 -14.5 -0.21 C-8.99 -3.08 -5.58 -2.47 0 0 Z M-8.3 1.54 C-8.3 2.2 -8.3 2.86 -8.3 3.54 C-4.68 5.41 -1.05 7.26 2.58 9.1 C3.61 9.64 4.64 10.17 5.71 10.72 C6.69 11.22 7.68 11.72 8.7 12.23 C10.06 12.93 10.06 12.93 11.46 13.65 C12.2 13.94 12.94 14.24 13.7 14.54 C14.36 14.21 15.02 13.88 15.7 13.54 C12.64 11.91 9.58 10.29 6.52 8.67 C5.65 8.21 4.79 7.75 3.9 7.27 C3.06 6.83 2.22 6.38 1.35 5.92 C0.58 5.52 -0.19 5.11 -0.98 4.69 C-3.38 3.5 -5.8 2.5 -8.3 1.54 Z M-24.61 9.54 C-25.72 10.11 -25.72 10.11 -26.85 10.7 C-28.67 11.64 -30.48 12.59 -32.3 13.54 C-29.25 16.77 -26.65 18.35 -22.3 19.54 C-19.18 18.67 -16.64 17.08 -13.92 15.35 C-12.84 14.71 -12.84 14.71 -11.73 14.06 C-7.87 11.93 -7.87 11.93 -5.3 8.54 C-13.19 4.13 -17.05 5.54 -24.61 9.54 Z M-0.09 16.51 C-0.8 16.92 -1.51 17.32 -2.25 17.74 C-3.35 18.38 -3.35 18.38 -4.48 19.04 C-5.23 19.47 -5.98 19.9 -6.75 20.34 C-8.6 21.4 -10.45 22.47 -12.3 23.54 C-9.86 27.19 -7.81 28.38 -3.83 30.05 C0.98 30.98 4.35 28.34 8.27 25.79 C9.08 25.3 9.9 24.8 10.75 24.29 C12.75 23.07 14.73 21.82 16.7 20.54 C11.2 16.29 6.5 12.72 -0.09 16.51 Z M15.7 14.54 C17.02 15.53 18.34 16.52 19.7 17.54 C20.36 17.21 21.02 16.88 21.7 16.54 C18.89 14.26 18.89 14.26 15.7 14.54 Z M-32.3 19.54 C-30.12 22.04 -28.57 22.98 -25.3 23.54 C-27.47 21.04 -29.03 20.1 -32.3 19.54 Z M-41.3 20.54 C-41.3 30.44 -41.3 40.34 -41.3 50.54 C-28.8 57.16 -28.8 57.16 -16.23 63.67 C-15.5 64.04 -14.77 64.41 -14.01 64.8 C-12.3 65.67 -12.3 65.67 -10.3 65.54 C-10.3 55.97 -10.3 46.4 -10.3 36.54 C-25.29 27.48 -25.29 27.48 -41.3 20.54 Z M-17.3 20.54 C-16.97 21.2 -16.64 21.86 -16.3 22.54 C-15.97 21.88 -15.64 21.22 -15.3 20.54 C-15.96 20.54 -16.62 20.54 -17.3 20.54 Z M-25.3 23.54 C-23.98 24.53 -22.66 25.52 -21.3 26.54 C-20.64 26.21 -19.98 25.88 -19.3 25.54 C-22.11 23.26 -22.11 23.26 -25.3 23.54 Z M-17.3 27.54 C-14.75 30.51 -11.87 32.02 -8.3 33.54 C-7.64 33.21 -6.98 32.88 -6.3 32.54 C-7.75 31.7 -9.21 30.87 -10.67 30.04 C-11.48 29.58 -12.29 29.11 -13.13 28.64 C-15.19 27.39 -15.19 27.39 -17.3 27.54 Z " fill="#4C138B" transform="translate(55.295654296875,13.458740234375)"/><path d="M0 0 C3.54 3.37 6.18 6.56 6.84 11.53 C6.89 14.3 6.79 16.81 5.82 19.43 C5.31 21.56 5.31 21.56 6.97 23.37 C7.66 24.01 8.35 24.65 9.06 25.31 C9.79 26 10.53 26.69 11.28 27.4 C14.34 30.13 17.41 32.81 20.56 35.44 C19.85 38.64 19.33 40.49 16.56 42.44 C12.81 42.06 11.14 40.31 8.62 37.62 C3.48 31.7 3.48 31.7 -3.56 29.15 C-4.65 29.23 -5.75 29.3 -6.88 29.38 C-11.91 29.52 -15.25 29.55 -19.44 26.44 C-23.83 21.92 -25.4 17.84 -25.5 11.56 C-24.69 6.39 -21.28 2.8 -17.44 -0.56 C-11.65 -2.49 -5.56 -2.53 0 0 Z M-19.44 7.44 C-21.17 10.9 -20.92 14.65 -20.44 18.44 C-18.37 21.91 -16.33 24.21 -12.44 25.44 C-8.85 25.77 -8.85 25.77 -5.44 25.44 C-4.78 24.78 -4.12 24.12 -3.44 23.44 C-3.6 22.82 -3.77 22.2 -3.94 21.56 C-4.44 19.44 -4.44 19.44 -3.44 17.56 C-1.78 14.03 -3.06 10.81 -4.06 7.19 C-4.44 5.44 -4.44 5.44 -3.44 3.44 C-10.08 0.12 -14.78 2.67 -19.44 7.44 Z M0.56 8.44 C1.56 10.44 1.56 10.44 1.56 10.44 Z M1.56 11.44 C1.56 13.09 1.56 14.74 1.56 16.44 C1.89 16.44 2.22 16.44 2.56 16.44 C2.56 14.79 2.56 13.14 2.56 11.44 C2.23 11.44 1.9 11.44 1.56 11.44 Z M0.56 17.44 C1.56 19.44 1.56 19.44 1.56 19.44 Z " fill="#4C138B" transform="translate(77.4375,54.5625)"/></svg>
